<svg xmlns="http://www.w3.org/2000/svg" width="1920" viewBox="0 0 1440 810" height="1080" version="1.0"><path d="M145.493 350.731c-3.023 2.188-4.53 4.637-4.53 7.344 0 2.7 2.015 4.047 6.046 4.047 1.738 0 3.977-.504 6.719-1.516h.14c.458 0 .688.938.688 2.813 0 1.875-.184 2.996-.547 3.359-9.43 6.68-17.39 10.016-23.89 10.016-6.493 0-11.2-1.828-14.126-5.485-2.93-3.656-4.39-8.43-4.39-14.328 0-5.906 3.242-12.176 9.734-18.812 6.5-6.633 15.239-12.766 26.219-18.391 10.977-5.625 24.586-10.266 40.828-13.922 16.238-3.664 34.488-5.5 54.75-5.5 20.27 0 37.219 3.961 50.844 11.875 13.633 7.918 20.453 16.934 20.453 27.047 0 10.106-3.547 20.371-10.64 30.797-7.087 10.43-15.962 19.512-26.626 27.25-10.656 7.73-22.48 14.062-35.468 19-12.993 4.937-24.61 7.406-34.86 7.406-10.242 0-18.199-4.113-23.875-12.344-13.906 21.868-23.336 36.805-28.281 44.813-4.938 8-9.121 14.726-12.547 20.172-3.43 5.437-6.078 9.715-7.953 12.828-1.875 3.117-2.86 4.715-2.953 4.797-1.93 2.105-3.985 3.156-6.172 3.156l-6.734 1.234-3.297-.265h-2.328c-5.399 0-8.094-1.692-8.094-5.078 0-4.301 9.008-20.493 27.031-48.578 18.02-28.094 35.016-53.57 50.984-76.438 15.97-22.875 25.274-35.727 27.922-38.562 2.657-2.844 5.008-4.516 7.063-5.016 2.062-.508 5.383-.766 9.969-.766h6.859c1.187 0 1.781.938 1.781 2.813 0 1.875-.23 3.183-.687 3.922-8.055 11.25-22.602 33.48-43.64 66.687.726 1.469 1.937 2.387 3.624 2.75 1.695.367 3.508.547 5.438.547h3.968c8.414 0 17.52-2.035 27.313-6.11 9.789-4.07 18.39-8.94 25.797-14.609 7.414-5.675 13.613-11.597 18.593-17.765 4.989-6.176 7.485-11.461 7.485-15.86 0-4.394-1.375-8.328-4.125-11.797-2.742-3.476-6.485-6.222-11.235-8.234-9.335-3.937-20.656-5.906-33.968-5.906-13.313 0-29.371 3.453-48.172 10.36-18.805 6.905-32.508 13.655-41.11 20.25zm231.386 42.953c6.957 0 10.437 2.375 10.437 7.125 0 2.563-.601 4.446-1.796 5.64-1.188 1.188-3.727 5.15-7.61 11.876-3.886 6.719-8.187 15.32-12.906 25.797-4.711 10.469-7.75 19.414-9.125 26.828-.273.918-.406 2.2-.406 3.844 0 5.03 1.367 7.547 4.11 7.547 2.75 0 6-1.301 9.75-3.907 3.75-2.613 7.085-5.406 10.015-8.375a282.556 282.556 0 008.578-9.125c2.789-3.113 4.457-4.898 5-5.36.55-.456 1.379-.687 2.484-.687 1.739 0 2.79 1.329 3.156 3.985.364 2.648.547 5.39.547 8.234 0 2.836-.277 4.797-.828 5.89-2.648 5.22-8.48 11.493-17.5 18.813-9.011 7.313-17.199 10.969-24.562 10.969-7.367 0-12.79-2.242-16.266-6.719-3.469-4.476-5.203-9.441-5.203-14.89 0-5.446.91-10.227 2.734-14.344-7.593 9.887-16.308 18.262-26.14 25.125-9.836 6.851-17.867 10.281-24.094 10.281-6.219 0-11.293-1.875-15.219-5.625-5.031-4.664-7.547-11.14-7.547-19.422 0-8.281 1.848-16.601 5.547-24.968a89.83 89.83 0 0114.625-22.922 147.598 147.598 0 0119.89-18.875c15.188-11.895 29.188-17.844 42-17.844 4.938 0 8.962.828 12.079 2.484 3.113 1.649 5.082 3.703 5.906 6.172 2.188-3.289 4.035-5.367 5.547-6.234 1.508-.875 3.774-1.313 6.797-1.313zm-18.25 15.235c-15.648 0-31.84 8.695-48.578 26.078-5.95 6.219-11.418 13.68-16.406 22.375-4.993 8.687-7.485 14.633-7.485 17.828 0 3.2.914 4.797 2.75 4.797 2.563 0 9.696-5.051 21.406-15.156 11.72-10.114 19.493-17.547 23.329-22.297 4.207-5.313 12.535-16.52 24.984-33.625zm0 0" fill="#fefefe"/><path d="M431.508 423.184c21.594-24.52 39.984-36.781 55.172-36.781 3.75 0 6.832 1.125 9.25 3.375 2.425 2.242 3.64 5.148 3.64 8.719 0 3.562-2.543 9.531-7.625 17.906-5.074 8.367-9.761 15.43-14.062 21.188-2.281 2.93-4.867 4.39-7.75 4.39-2.887 0-5.133-1.05-6.735-3.156-1.593-2.102-2.39-4.57-2.39-7.406 0-6.313 3.383-13.446 10.156-21.407l-.281-.28c-3.012.28-10.492 6.234-22.438 17.859-11.937 11.617-22.093 22.023-30.468 31.218-8.368 9.188-17.446 20.371-27.235 33.547-2.836 3.938-5.234 5.906-7.203 5.906-1.969 0-4.578-.617-7.828-1.859-3.25-1.238-5.211-2.129-5.89-2.672-.688-.55-1.032-1.469-1.032-2.75s.367-2.765 1.094-4.453c.73-1.695 2.078-4.098 4.047-7.203 1.968-3.113 4.941-8.145 8.922-15.094 3.976-6.957 10.175-17.476 18.593-31.562 8.414-14.094 13.446-22.602 15.094-25.532 3.477-6.039 6.316-10.437 8.516-13.187 4.113-5.207 11.066-7.813 20.86-7.813 2.194 0 3.296 1.372 3.296 4.11 0 4.304-3.98 12.402-11.938 24.297zm157.954-29.5c6.957 0 10.437 2.375 10.437 7.125 0 2.563-.602 4.446-1.797 5.64-1.187 1.188-3.726 5.15-7.61 11.876-3.886 6.719-8.187 15.32-12.905 25.797-4.711 10.469-7.75 19.414-9.125 26.828-.274.918-.407 2.2-.407 3.844 0 5.03 1.367 7.547 4.11 7.547 2.75 0 6-1.301 9.75-3.907 3.75-2.613 7.086-5.406 10.015-8.375a282.556 282.556 0 008.578-9.125c2.79-3.113 4.457-4.898 5-5.36.551-.456 1.38-.687 2.485-.687 1.738 0 2.789 1.329 3.156 3.985.363 2.648.547 5.39.547 8.234 0 2.836-.277 4.797-.828 5.89-2.649 5.22-8.48 11.493-17.5 18.813-9.012 7.313-17.2 10.969-24.563 10.969-7.367 0-12.789-2.242-16.265-6.719-3.47-4.476-5.203-9.441-5.203-14.89 0-5.446.91-10.227 2.734-14.344-7.594 9.887-16.309 18.262-26.14 25.125-9.837 6.851-17.868 10.281-24.094 10.281-6.22 0-11.293-1.875-15.22-5.625-5.03-4.664-7.546-11.14-7.546-19.422 0-8.281 1.848-16.601 5.547-24.968a89.83 89.83 0 0114.625-22.922 147.598 147.598 0 0119.89-18.875c15.188-11.895 29.188-17.844 42-17.844 4.938 0 8.961.828 12.079 2.484 3.113 1.649 5.082 3.703 5.906 6.172 2.187-3.289 4.035-5.367 5.547-6.234 1.507-.875 3.773-1.313 6.797-1.313zm-18.25 15.235c-15.649 0-31.84 8.695-48.579 26.078-5.949 6.219-11.418 13.68-16.406 22.375-4.992 8.687-7.484 14.633-7.484 17.828 0 3.2.914 4.797 2.75 4.797 2.562 0 9.695-5.051 21.406-15.156 11.719-10.114 19.492-17.547 23.328-22.297 4.207-5.313 12.535-16.52 24.985-33.625zm0 0" fill="#fefefe"/><path d="M599.215 498.81l-6.734-.282h-2.469c-.914-.273-1.898-.816-2.953-1.64-1.05-.82-1.847-1.415-2.39-1.782-.551-.375-.829-1.039-.829-2 0-.957.368-2.625 1.094-5 17.844-39.25 35.086-70.633 51.735-94.156 1.832-2.563 4.785-4.504 8.859-5.828 4.07-1.32 8.031-1.985 11.875-1.985 2.281 0 3.422 1.782 3.422 5.344 0 1.012-.367 2.367-1.094 4.063-.73 1.687-2.559 4.453-5.484 8.297-2.93 3.843-6.407 8.234-10.438 13.171-4.023 4.938-6.308 7.774-6.86 8.5 12.532-12.988 23.848-22.66 33.954-29.015 10.113-6.363 17.437-9.547 21.969-9.547 4.53 0 8.004 1.309 10.422 3.922 2.425 2.605 3.64 5.398 3.64 8.375 0 2.969-.21 5.437-.625 7.406-.406 1.969-1.156 4.027-2.25 6.172a881.329 881.329 0 01-2.812 5.484c-.782 1.512-2.09 3.48-3.922 5.907-1.824 2.43-3.078 4.101-3.766 5.015-.687.906-2.11 2.64-4.265 5.203-2.149 2.563-3.31 3.985-3.485 4.266 2.563-2.563 6.13-6.36 10.703-11.39 4.57-5.032 8.438-9.239 11.594-12.626 3.156-3.383 7.113-7.203 11.875-11.453 4.758-4.258 9.195-7.719 13.313-10.375 9.875-6.219 19.89-9.328 30.046-9.328 3.477 0 6.407 1.102 8.782 3.297 2.382 2.187 3.578 4.82 3.578 7.89 0 3.063-3.711 10.383-11.125 21.954a6733.497 6733.497 0 00-22.156 34.859c-7.368 11.668-11.047 19.012-11.047 22.031 0 4.211.773 6.703 2.328 7.485 1.55.773 3.426 1.07 5.625.89 2.195-.187 5.285-1.61 9.265-4.265 3.977-2.657 7.524-5.399 10.641-8.235a403.445 403.445 0 0014-13.312c.906-.82 1.91-1.235 3.016-1.235 1.738 0 2.789 1.329 3.156 3.985.363 2.648.547 5.39.547 8.234 0 2.836-.278 4.797-.828 5.89-2.649 5.126-8.5 11.4-17.563 18.813-9.055 7.407-17.746 11.11-26.078 11.11-1 0-1.73-.047-2.187-.141-9.43-.906-15.95-3.484-19.563-7.734-3.617-4.258-5.422-9.317-5.422-15.172 0-5.863 1.988-12.957 5.969-21.281 3.976-8.32 8.348-15.868 13.11-22.641 4.757-6.77 9.128-12.875 13.109-18.313 3.976-5.445 5.968-8.398 5.968-8.859 0-.457-.367-.687-1.093-.687-2.844 0-9.157 4.574-18.938 13.718-16.75 15.649-31.21 30.746-43.375 45.297-3.2 3.844-10.793 13.59-22.781 29.235-1.375 1.82-3.555 2.734-6.531 2.734-2.97 0-6.055-.57-9.25-1.703-3.2-1.145-4.797-2.633-4.797-4.469 0-.914 7.27-13.75 21.812-38.5 14.551-24.75 21.828-38.242 21.828-40.484 0-2.239-1.355-3.36-4.062-3.36-2.7 0-8.258 4.028-16.672 12.078-23.148 22.149-41.078 44.153-53.797 66.016-.824 1.281-2.422 3.297-4.797 6.047-2.375 2.742-3.976 4.11-4.797 4.11zm0 0" fill="#fefefe"/><path d="M863.387 393.403c2.75 0 5.562 1.234 8.437 3.703 2.883 2.469 4.328 6.246 4.328 11.328 0 5.075-1.789 11.664-5.36 19.766-3.562 8.094-8.452 16.328-14.671 24.703a204.83 204.83 0 01-20.516 23.594c-7.46 7.367-15.511 13.406-24.156 18.125-8.648 4.707-16.496 7.062-23.547 7.062-7.043 0-12.695-2.218-16.953-6.656-4.25-4.437-6.375-10.61-6.375-18.516 0-7.914 1.941-16.675 5.828-26.28 3.895-9.614 8.906-18.102 15.031-25.47 6.133-7.363 12.77-13.972 19.907-19.828 14.914-11.988 28-17.984 39.25-17.984 5.03 0 8.828 1.242 11.39 3.719.914.824 1.375 1.554 1.375 2.187v.828c1.282-.187 3.29-.281 6.032-.281zm-13.86 18.25h-.953c-3.21 0-4.812-2.332-4.812-7-6.68 2.2-13.68 6.043-21 11.531-7.313 5.492-13.852 11.985-19.61 19.485-11.719 15.011-17.668 27.683-17.844 38.015 0 5.125 1.875 7.688 5.625 7.688s9.329-2.469 16.735-7.406c7.414-4.938 14.758-11.977 22.031-21.125 7.27-9.157 12.711-17.094 16.328-23.813 3.613-6.727 5.422-11.305 5.422-13.734 0-2.426-.64-3.641-1.922-3.641zm139.851 43.234c1.738 0 2.789 1.329 3.156 3.985.363 2.648.547 5.39.547 8.234 0 2.836-.277 4.797-.828 5.89-2.648 5.126-8.453 11.372-17.422 18.735-8.969 7.363-17.48 11.047-25.531 11.047-4.938 0-9.512-1.484-13.719-4.453-4.21-2.969-6.312-8.156-6.312-15.563 0-7.414 1.968-14.691 5.906-21.828-22.7 28.45-40.496 42.672-53.39 42.672-5.126 0-9.266-1.836-12.423-5.5-3.156-3.656-4.734-7.426-4.734-11.312 0-3.883.547-7.907 1.64-12.063 1.102-4.164 2.27-7.894 3.5-11.187 1.239-3.301 3.067-7.375 5.485-12.22 2.426-4.85 4.234-8.374 5.422-10.562 1.195-2.195 3.097-5.515 5.703-9.953 2.602-4.437 6.031-10.406 10.281-17.906 4.258-7.508 7.785-13.07 10.578-16.687 2.79-3.614 5.508-5.442 8.157-5.485 2.656-.039 4.988 1.04 7 3.235 2.02 2.187 3.03 3.968 3.03 5.343s-3.07 7.555-9.202 18.532c-18.117 32.75-27.172 51.824-27.172 57.218 0 1.375.504 2.063 1.515 2.063 4.395 0 15.329-9.516 32.797-28.547 17.477-19.031 27.586-31.219 30.328-36.563 2.75-5.351 5.426-9.859 8.032-13.515 2.601-3.664 4.547-5.91 5.828-6.735 3.937-2.562 9.015-3.937 15.234-4.125 1.008 0 1.785.047 2.328.141.551.094 1.192.875 1.922 2.344.738 1.46 1.11 2.601 1.11 3.422-.825 2.562-4.465 9.382-10.922 20.453-6.45 11.062-10.04 17.328-10.766 18.797-10.793 22.324-16.187 36.87-16.187 43.64 0 3.844 1.46 5.766 4.39 5.766 5.301-.727 11.703-4.984 19.203-12.766 2.75-2.832 5.473-5.71 8.172-8.64 2.696-2.926 4.363-4.641 5-5.141.645-.508 1.426-.766 2.344-.766zm0 0" fill="#fefefe"/><path d="M1055.932 476.84c0 4.032 2.742 6.047 8.234 6.047 2.926 0 6.61-1.46 11.047-4.39 4.438-2.926 8.442-6.13 12.016-9.61 9.508-9.425 14.906-14.14 16.187-14.14 2.383 0 3.578 3.433 3.578 10.297 0 6.867-2.152 11.578-6.453 14.14-13.086 11.805-23.195 18.985-30.328 21.547-4.031 1.363-8.476 2-13.328 1.906-4.844-.086-9.648-2.183-14.406-6.296-4.75-4.125-7.125-9.133-7.125-15.032 0-5.906 1.55-12.61 4.656-20.11 3.113-7.5 6.297-13.925 9.547-19.28 3.25-5.352 7.25-11.57 12-18.657 4.758-7.093 7.281-11.507 7.562-13.25l-.28-.28c-3.024.28-10.5 6.234-22.438 17.859-11.938 11.617-21.797 21.726-29.579 30.328-7.773 8.593-17.058 20.074-27.859 34.437-3.023 3.938-5.496 5.906-7.422 5.906-1.918 0-4.496-.617-7.734-1.859-3.25-1.238-5.238-2.129-5.969-2.672-.738-.55-1.11-1.375-1.11-2.469 0-1.101.325-2.453.97-4.046.636-1.602 1.25-2.93 1.843-3.985.594-1.05 1.578-2.676 2.953-4.875 1.375-2.195 4.098-6.836 8.172-13.922 4.07-7.093 10.317-17.68 18.735-31.765 8.414-14.094 13.445-22.602 15.093-25.532 3.477-6.039 6.313-10.437 8.5-13.187 4.125-5.207 11.078-7.813 20.86-7.813 2.195 0 3.297 1.372 3.297 4.11 0 4.304-3.98 12.402-11.938 24.297l-5.766 8.64c15.833-17.562 29.192-28.675 40.079-33.343 5.3-2.29 10.078-3.438 14.328-3.438 4.258 0 7.644 1.148 10.156 3.438 2.52 2.28 3.781 4.82 3.781 7.609 0 2.793-.965 6.137-2.89 10.031-1.918 3.887-3.86 7.36-5.829 10.422-1.96 3.063-4.542 6.93-7.75 11.594a3764.72 3764.72 0 00-5.218 7.625c-.274.406-.98 1.508-2.125 3.297a226.481 226.481 0 01-2.532 3.906c-.554.824-1.468 2.266-2.75 4.328-1.28 2.055-2.312 3.766-3.093 5.14a975.756 975.756 0 01-2.875 5.079c-1.149 2.012-2.063 3.75-2.75 5.219-.68 1.46-1.387 3.058-2.125 4.796-1.282 3.2-1.922 5.852-1.922 7.954zm0 0" fill="#fefefe"/><path d="M1188.504 321.216l5.64 1.375c.82 0 1.551.414 2.188 1.234.645.824.969 1.605.969 2.344 0 .73-.965 2.699-2.89 5.906a423.75 423.75 0 01-6.798 10.906c-2.605 4.063-4 6.278-4.187 6.64 7.144-.538 12.203-.812 15.172-.812 2.968 0 5 .211 6.093.625 1.102.407 2.364 1.547 3.782 3.422 1.414 1.875 2.718 3.293 3.906 4.25 1.195.961 1.797 2.403 1.797 4.328 0 1.918-1.168 3.543-3.5 4.875a18.877 18.877 0 01-7.485 2.39c-21.218 2.106-32.93 3.204-35.125 3.298-7.417 11.344-17.78 29.027-31.093 53.047-13.313 24.011-20.383 39.039-21.203 45.078-.368 2.75-.547 4.992-.547 6.719 0 3.574 1.875 5.359 5.625 5.359s7.91-1.438 12.484-4.313c4.582-2.882 8.797-6.02 12.64-9.406 10.239-9.156 15.727-13.734 16.47-13.734 2.374 0 3.562 4.12 3.562 12.36 0 4.48-2.059 8.507-6.172 12.077-9.242 7.961-17.016 13.953-23.328 17.985-6.313 4.02-12.633 6.03-18.953 6.03-1.367 0-2.64-.14-3.828-.421-7.324-1.367-12.703-4.039-16.14-8.016-3.43-3.976-5.122-9.351-5.079-16.125.05-6.77 2.066-14.984 6.047-24.64 3.976-9.656 8.988-19.926 15.031-30.813 9.875-17.75 19.754-34.398 29.64-49.953l-5.218.688c-10.617 1.187-16.793 1.78-18.531 1.78h-1.235c-2.648 0-5.21-.523-7.687-1.577-2.469-1.051-3.703-2.352-3.703-3.906 0-1.551.66-3.063 1.984-4.532 1.332-1.468 2.133-2.613 2.406-3.437.645-2.008 3.047-4.25 7.203-6.719 4.165-2.469 7.301-3.77 9.407-3.906 2.101-.133 4.14-.25 6.11-.344 1.968-.094 4.16-.187 6.577-.281 2.426-.094 4.281-.18 5.563-.266l12.36-.562c7.687-11.52 12.968-18.926 15.843-22.22 2.883-3.3 4.555-5.108 5.015-5.421.458-.32 1.375-.484 2.75-.484zm128.18 100.874l-32.516-1.374c-3.843 9.335-6.773 19.355-8.78 30.062-.095.45-.235 1.09-.423 1.922a70.27 70.27 0 00-.406 1.984c-.094.5-.234 1.121-.422 1.86-.18.73-.36 1.304-.547 1.718-.18.407-.402.84-.672 1.297-.554.73-1.218 1.094-2 1.094-.773 0-1.433-.133-1.984-.406-.555-.281-1.105-.692-1.656-1.235a24.824 24.824 0 01-1.438-1.578c-.406-.508-.933-1.175-1.578-2l-1.5-1.922a76.444 76.444 0 00-1.515-1.843 77.101 77.101 0 00-1.516-1.782c-.274-.32-.637-.78-1.094-1.375-.46-.593-.758-1.117-.89-1.578a4.34 4.34 0 01-.204-1.234c0-.375.157-.926.47-1.656.32-.727 1.35-3.016 3.093-6.86 2.75-6.406 4.898-11.988 6.453-16.75-13.906.375-22.46.563-25.656.563-5.774 0-8.656-1.785-8.656-5.36 0-.363.16-.976.484-1.843.32-.875.867-2.383 1.64-4.532.782-2.156 1.333-3.617 1.657-4.39.32-.781.847-1.719 1.578-2.813 1.187-1.832 3.148-2.75 5.89-2.75 7.32 0 17.16.278 29.516.828.363-.738 2.555-4.582 6.578-11.53 4.032-6.958 6.774-11.852 8.235-14.688 1.468-2.832 2.336-4.66 2.61-5.485.28-.82.577-1.531.89-2.125.32-.601.804-1.27 1.453-2 1.187-1.55 2.804-2.328 4.86-2.328 2.062 0 4.234.938 6.515 2.813 2.289 1.875 3.437 3.843 3.437 5.906 0 2.055-.593 4.312-1.78 6.781-1.188 2.469-3.34 6.2-6.454 11.188-3.106 4.992-5.527 9.086-7.266 12.28 15 .65 24.47.97 28.407.97 6.582 0 9.875 1.742 9.875 5.218 0 1.274-.278 2.368-.829 3.282-.543.918-1.156 1.996-1.843 3.234-.688 1.23-1.196 2.14-1.516 2.734-.312.594-.84 1.329-1.578 2.204-.73.867-1.461 1.527-2.188 1.984-1.835 1.012-4.078 1.516-6.734 1.516zm0 0" fill="#fefefe"/></svg>